Coordinates
version=1
nRows=17
nColumns=40
inDegrees=yes

Units are S.I. units (second, meters, Newtons, ...)
If the header above contains a line with 'inDegrees', this indicates whether rotational values are in degrees (yes) or radians (no).

endheader
time	pelvis_tilt	pelvis_list	pelvis_rotation	pelvis_tx	pelvis_ty	pelvis_tz	hip_flexion_r	hip_adduction_r	hip_rotation_r	knee_angle_r	knee_angle_r_beta	ankle_angle_r	subtalar_angle_r	mtp_angle_r	hip_flexion_l	hip_adduction_l	hip_rotation_l	knee_angle_l	knee_angle_l_beta	ankle_angle_l	subtalar_angle_l	mtp_angle_l	lumbar_extension	lumbar_bending	lumbar_rotation	arm_flex_r	arm_add_r	arm_rot_r	elbow_flex_r	pro_sup_r	wrist_flex_r	wrist_dev_r	arm_flex_l	arm_add_l	arm_rot_l	elbow_flex_l	pro_sup_l	wrist_flex_l	wrist_dev_l
      6.97500000	     29.84470076	      4.65137801	   -175.80082036	      0.37704278	      0.61404020	     -0.93659927	     81.07356010	    -45.61541650	     -4.01215501	     53.60135676	      0.93552016	     -7.53483304	      0.00000000	      0.00000000	     90.79955486	    -40.42250615	      6.21164515	     51.58278517	      0.90028944	    -10.32262039	      0.00000000	      0.00000000	    -33.68372905	     -0.80495611	      1.28490892	     54.87535594	    -17.52083793	     86.39798386	     19.03502715	     73.85253502	      0.00000000	      0.00000000	     56.80896551	    -14.10273997	     79.68797421	     13.47140482	     64.39268968	      0.00000000	      0.00000000
      6.98000000	     29.71638252	      4.80799927	   -175.72198748	      0.37679819	      0.61455686	     -0.93672951	     80.78953123	    -45.76428441	     -4.49977758	     53.73007649	      0.93776674	     -7.84880146	      0.00000000	      0.00000000	     90.77041559	    -40.41592028	      6.34783856	     51.46277744	      0.89819491	    -10.66516058	      0.00000000	      0.00000000	    -33.73592594	     -0.57204046	      1.21619077	     53.85257627	    -17.16119849	     81.82679642	     18.73362826	     71.86849990	      0.00000000	      0.00000000	     56.27023161	    -13.93267300	     76.56641068	     13.41274150	     63.07973452	      0.00000000	      0.00000000
      6.98500000	     29.80975872	      4.74953416	   -175.73434147	      0.37691286	      0.61488642	     -0.93696306	     80.80269828	    -45.64884298	     -4.32239279	     53.55161313	      0.93465197	     -7.54629379	      0.00000000	      0.00000000	     90.65896936	    -40.39832299	      6.20301301	     51.30263483	      0.89539989	    -10.49502723	      0.00000000	      0.00000000	    -33.61660976	     -0.68216173	      1.33404854	     54.79432930	    -17.55830959	     86.54616700	     19.13176447	     73.16071772	      0.00000000	      0.00000000	     56.54142908	    -13.92854342	     78.56917902	     13.31471663	     63.72349711	      0.00000000	      0.00000000
      6.99000000	     29.83423914	      4.79841137	   -175.70657592	      0.37691676	      0.61526980	     -0.93724907	     80.72369552	    -45.63093357	     -4.41713735	     53.49695756	      0.93369805	     -7.68691751	      0.00000000	      0.00000000	     90.58523087	    -40.38566677	      6.18970817	     51.07245360	      0.89138247	    -10.69826360	      0.00000000	      0.00000000	    -33.53579705	     -0.63771716	      1.30693253	     54.75990457	    -17.45309783	     86.52636158	     19.00182884	     73.74699469	      0.00000000	      0.00000000	     56.59636119	    -14.15555351	     79.17695270	     13.58337364	     64.13660486	      0.00000000	      0.00000000
      6.99500000	     29.78598607	      4.83051778	   -175.64308007	      0.37685930	      0.61579017	     -0.93740641	     80.52947659	    -45.67044820	     -4.57833734	     53.42917762	      0.93251507	     -7.64748744	      0.00000000	      0.00000000	     90.46508906	    -40.35428672	      6.15894059	     50.94050853	      0.88907960	    -10.76635758	      0.00000000	      0.00000000	    -33.54623284	     -0.58645772	      1.29245228	     54.72397293	    -17.47633306	     86.57097049	     19.04827970	     73.51068866	      0.00000000	      0.00000000	     56.51946837	    -14.06287444	     78.86438489	     13.42868785	     63.96566964	      0.00000000	      0.00000000
      7.00000000	     29.77924424	      4.88300628	   -175.54042538	      0.37684518	      0.61615721	     -0.93751143	     80.39420840	    -45.73472209	     -4.70841560	     53.40618249	      0.93211373	     -7.52039141	      0.00000000	      0.00000000	     90.39620324	    -40.26688059	      6.14490165	     50.78519478	      0.88636886	    -10.75323229	      0.00000000	      0.00000000	    -33.49252960	     -0.50214425	      1.27245170	     54.61693577	    -17.49527991	     86.39054521	     19.06227077	     73.43863557	      0.00000000	      0.00000000	     56.46515271	    -13.89174295	     78.57746794	     13.15934459	     63.82972165	      0.00000000	      0.00000000
      7.00500000	     29.46198068	      5.22151292	   -175.20109562	      0.37632262	      0.61687100	     -0.93723253	     79.62035679	    -46.15655651	     -5.68471970	     53.56700484	      0.93492060	     -7.84785324	      0.00000000	      0.00000000	     90.36301485	    -40.03498439	      6.49309946	     50.67203951	      0.88439393	    -11.23770925	      0.00000000	      0.00000000	    -33.72217166	      0.06132480	      1.09076334	     53.68615823	    -17.09353692	     82.15651147	     18.62580205	     71.76360112	      0.00000000	      0.00000000	     55.99854339	    -13.76357313	     76.10272964	     13.11602282	     62.74617932	      0.00000000	      0.00000000
      7.01000000	     29.71287667	      5.01041075	   -175.36662521	      0.37663100	      0.61685969	     -0.93792951	     80.05744656	    -45.84313057	     -5.03119240	     53.37812162	      0.93162397	     -7.54183287	      0.00000000	      0.00000000	     90.26095886	    -40.16097442	      6.13436672	     50.50371063	      0.88145603	    -10.97646036	      0.00000000	      0.00000000	    -33.42577601	     -0.31289792	      1.23612876	     54.54343601	    -17.47132185	     86.45904978	     19.01961312	     74.67833736	      0.00000000	      0.00000000	     56.49348366	    -14.13106993	     79.33359421	     13.46489424	     64.71465607	      0.00000000	      0.00000000
      7.01500000	     29.67974633	      4.94362649	   -175.39395675	      0.37658020	      0.61734443	     -0.93833109	     80.04870315	    -45.77459005	     -4.92067913	     53.34493189	      0.93104470	     -7.58812297	      0.00000000	      0.00000000	     90.03847913	    -40.22340940	      5.91693917	     50.35072032	      0.87878585	    -10.98879952	      0.00000000	      0.00000000	    -33.41313734	     -0.41043118	      1.20002757	     54.50510552	    -17.41859911	     86.44897313	     19.02946944	     74.38019737	      0.00000000	      0.00000000	     56.42741987	    -14.18525535	     79.14994782	     13.46794550	     64.67858781	      0.00000000	      0.00000000
      7.02000000	     29.62680283	      4.98740092	   -175.30029149	      0.37648050	      0.61775590	     -0.93855532	     79.89137478	    -45.83129039	     -5.02323517	     53.34964637	      0.93112698	     -7.52522221	      0.00000000	      0.00000000	     89.90530571	    -40.17512027	      5.86777008	     50.18635260	      0.87591709	    -11.01675610	      0.00000000	      0.00000000	    -33.40848653	     -0.34497340	      1.21359127	     54.41172230	    -17.44780367	     86.31452176	     19.03853360	     74.44119471	      0.00000000	      0.00000000	     56.36071975	    -14.04078738	     78.86556551	     13.26968275	     64.76113893	      0.00000000	      0.00000000
      7.02500000	     29.50647409	      5.00256087	   -175.23371041	      0.37636547	      0.61835494	     -0.93881033	     79.65915113	    -45.86528400	     -5.14637651	     53.31584210	      0.93053699	     -7.56798406	      0.00000000	      0.00000000	     89.67959146	    -40.17238182	      5.75255256	     50.02334992	      0.87307216	    -11.14080058	      0.00000000	      0.00000000	    -33.49124938	     -0.31059172	      1.16077778	     54.42836959	    -17.43966918	     86.45690472	     19.11066434	     74.29915911	      0.00000000	      0.00000000	     56.34352785	    -14.18496086	     78.72883038	     13.47891845	     64.81501197	      0.00000000	      0.00000000
      7.03000000	     29.45504292	      5.05337893	   -175.10573830	      0.37634580	      0.61871085	     -0.93895499	     79.53465236	    -45.95561081	     -5.24038292	     53.35759297	      0.93126568	     -7.67796566	      0.00000000	      0.00000000	     89.57438883	    -40.07353150	      5.74685533	     49.86703325	      0.87034392	    -11.25842617	      0.00000000	      0.00000000	    -33.48306855	     -0.20290672	      1.11297017	     54.34806878	    -17.49176684	     86.55342160	     19.23106027	     73.20932412	      0.00000000	      0.00000000	     56.19599389	    -14.11898017	     77.94992658	     13.46238024	     63.98947702	      0.00000000	      0.00000000
      7.03500000	     29.24852949	      5.12835966	   -175.01932432	      0.37601881	      0.61947190	     -0.93913258	     79.10761997	    -46.01849290	     -5.53451236	     53.34986610	      0.93113082	     -7.42173864	      0.00000000	      0.00000000	     89.29362118	    -40.07883974	      5.70009658	     49.70318069	      0.86748415	    -11.14566660	      0.00000000	      0.00000000	    -33.65062869	     -0.09923453	      1.13103931	     54.29573529	    -17.46954006	     86.45594094	     19.19334712	     72.68574750	      0.00000000	      0.00000000	     56.09007304	    -13.93411255	     77.47639787	     13.17958885	     63.67656325	      0.00000000	      0.00000000
      7.04000000	     29.10665322	      5.16499372	   -174.90510654	      0.37586023	      0.62021605	     -0.93928171	     78.76991764	    -46.09960603	     -5.75392876	     53.28323928	      0.92996796	     -7.31952196	      0.00000000	      0.00000000	     89.02381545	    -40.01427007	      5.62351719	     49.49743426	      0.86389320	    -11.15540349	      0.00000000	      0.00000000	    -33.75634496	     -0.03411695	      1.09408376	     54.17429041	    -17.40459292	     86.14033787	     19.08390902	     72.24703006	      0.00000000	      0.00000000	     56.06611163	    -13.79763736	     77.02120739	     12.99255757	     63.41777394	      0.00000000	      0.00000000
      7.04500000	     28.92096935	      5.22310064	   -174.88801615	      0.37564715	      0.62092711	     -0.93947190	     78.42008863	    -46.09294227	     -5.95381972	     53.25365477	      0.92945161	     -7.41820834	      0.00000000	      0.00000000	     88.81421991	    -40.10642999	      5.53849784	     49.39627008	      0.86212755	    -11.32595540	      0.00000000	      0.00000000	    -33.92020317	      0.03834720	      1.14854335	     54.26323202	    -17.47633347	     86.54911591	     19.21375117	     72.52896050	      0.00000000	      0.00000000	     56.10233566	    -13.98304452	     77.59644282	     13.25860289	     63.63835880	      0.00000000	      0.00000000
      7.05000000	     28.85220286	      5.16738783	   -174.92991090	      0.37553929	      0.62145577	     -0.93984273	     78.35901272	    -46.03332411	     -5.90818209	     53.24347605	      0.92927396	     -7.43108054	      0.00000000	      0.00000000	     88.58096464	    -40.20701989	      5.33308352	     49.28571278	      0.86019796	    -11.40766123	      0.00000000	      0.00000000	    -33.93829563	     -0.07040379	      1.16316518	     54.24571920	    -17.42623483	     86.46224010	     19.13541954	     73.74463053	      0.00000000	      0.00000000	     56.39700217	    -14.36841826	     79.41104874	     13.69557434	     65.33217312	      0.00000000	      0.00000000
      7.05500000	     28.81943566	      5.21200789	   -174.87281869	      0.37552646	      0.62196989	     -0.93998083	     78.17472237	    -46.05102577	     -6.05992899	     53.17071574	      0.92800406	     -7.42791841	      0.00000000	      0.00000000	     88.45654984	    -40.16161699	      5.31842661	     49.09140465	      0.85680665	    -11.46098620	      0.00000000	      0.00000000	    -33.91229256	     -0.01168341	      1.14011092	     54.20549135	    -17.37267722	     86.38485937	     19.07137034	     73.98955993	      0.00000000	      0.00000000	     56.34982950	    -14.35882137	     79.19448148	     13.65364277	     65.64307711	      0.00000000	      0.00000000
